<svg xmlns="http://www.w3.org/2000/svg" width="184" height="184" fill-rule="nonzero"><g fill="#0031ff"><path d="M91.586 154.604c34.803 0 63.017-28.214 63.017-63.017S126.4 28.57 91.586 28.57 28.57 56.783 28.57 91.586s28.214 63.017 63.017 63.017zm0 8.607c-39.557 0-71.624-32.067-71.624-71.624S52.03 19.962 91.586 19.962 163.21 52.03 163.21 91.586s-32.067 71.624-71.624 71.624z"/><circle cx="77.492" cy="80.086" r="4.633"/><circle cx="88.691" cy="137.887" r="4.633"/><circle cx="133.036" cy="90.014" r="4.633"/><circle cx="49.818" cy="91.471" r="4.633"/></g><circle fill="#99a9ed" cx="58.027" cy="121.211" r="4.633"/><g fill="#0031ff"><circle cx="67.822" cy="103.385" r="4.633"/><circle cx="103.252" cy="52.288" r="4.633"/><circle cx="78.763" cy="50.48" r="4.633"/></g><circle fill="#99a9ed" cx="91.471" cy="112.074" r="4.633"/><circle fill="#0031ff" cx="111.856" cy="89.44" r="4.633"/><g fill="#99a9ed"><circle cx="99.281" cy="72.144" r="4.633"/><circle cx="128.403" cy="115.827" r="4.633"/></g><g fill="#0031ff"><circle cx="111.194" cy="125.094" r="4.633"/><circle cx="122.446" cy="66.849" r="4.633"/></g><circle fill="#99a9ed" cx="56.703" cy="68.35" r="4.633"/><path d="M91.784 8.607c-45.937 0-83.177 37.24-83.177 83.177v.432c0 45.937 37.24 83.177 83.177 83.177h.432c45.937 0 83.177-37.24 83.177-83.177v-.432c0-45.937-37.24-83.177-83.177-83.177h-.432zm0-8.607h.432C142.907 0 184 41.093 184 91.784v.432C184 142.907 142.907 184 92.216 184h-.432C41.093 184 0 142.907 0 92.216v-.432C0 41.093 41.093 0 91.784 0z" fill="#0031ff"/></svg>